<svg xmlns="http://www.w3.org/2000/svg" viewBox="0 0 1440 900" font-family="Inter, ui-sans-serif, system-ui, -apple-system, 'Segoe UI', Roboto, sans-serif">
  
  <defs>
    <linearGradient id="brand" x1="0" y1="0" x2="1" y2="1">
      <stop offset="0%" stop-color="#22c55e"/>
      <stop offset="100%" stop-color="#16a34a"/>
    </linearGradient>
    <linearGradient id="bg" x1="0" y1="0" x2="1" y2="1">
      <stop offset="0%" stop-color="#fafafa"/>
      <stop offset="100%" stop-color="#f4f4f5"/>
    </linearGradient>
    <linearGradient id="bgDark" x1="0" y1="0" x2="1" y2="1">
      <stop offset="0%" stop-color="#0a0a0a"/>
      <stop offset="100%" stop-color="#111114"/>
    </linearGradient>
    <linearGradient id="card" x1="0" y1="0" x2="0" y2="1">
      <stop offset="0%" stop-color="#ffffff"/>
      <stop offset="100%" stop-color="#fafafa"/>
    </linearGradient>
    <linearGradient id="cardDark" x1="0" y1="0" x2="0" y2="1">
      <stop offset="0%" stop-color="#1a1a1f"/>
      <stop offset="100%" stop-color="#15151a"/>
    </linearGradient>
    <filter id="cardShadow" x="-10%" y="-10%" width="120%" height="120%">
      <feDropShadow dx="0" dy="4" stdDeviation="10" flood-color="#0f172a" flood-opacity="0.10"/>
    </filter>
    <filter id="cardShadowDark" x="-10%" y="-10%" width="120%" height="120%">
      <feDropShadow dx="0" dy="6" stdDeviation="12" flood-color="#000000" flood-opacity="0.45"/>
    </filter>
    <filter id="modalShadow" x="-20%" y="-20%" width="140%" height="140%">
      <feDropShadow dx="0" dy="20" stdDeviation="30" flood-color="#0f172a" flood-opacity="0.30"/>
    </filter>
  </defs>

  
  <rect width="1440" height="900" fill="url(#bg)"/>

  <!-- Sidebar -->
  <g>
    <rect width="228" height="900" fill="#0a0a0a"/>
    <g transform="translate(28,40)">
      <rect width="32" height="32" rx="9" fill="url(#brand)"/>
      <text x="16" y="22" text-anchor="middle" font-size="14" font-weight="700" fill="white">W</text>
      <text x="44" y="22" font-size="15" font-weight="700" fill="white">Whatslang</text>
    </g>
    <text x="34" y="92" font-size="10" fill="#52525b" letter-spacing="1.4">NAVIGATION</text>
    <g>
      <rect x="14" y="110" width="200" height="36" rx="9" fill="#16a34a"/><text x="34" y="132" font-size="13" font-weight="600" fill="white">Dashboard</text>
      <text x="34" y="176" font-size="13" fill="#a1a1aa">Chats</text>
      <text x="34" y="220" font-size="13" fill="#a1a1aa">Bots</text>
      <text x="34" y="264" font-size="13" fill="#a1a1aa">Diagnostics</text>
      <text x="34" y="308" font-size="13" fill="#a1a1aa">Settings</text>
    </g>
    <g transform="translate(28,828)">
      <rect width="172" height="40" rx="10" fill="#15151a"/>
      <circle cx="24" cy="20" r="11" fill="#27272a"/>
      <text x="24" y="24" text-anchor="middle" font-size="11" font-weight="700" fill="#a1a1aa">A</text>
      <text x="44" y="17" font-size="11" font-weight="600" fill="#e4e4e7">admin</text>
      <text x="44" y="30" font-size="9" fill="#71717a">signed in</text>
    </g>
  </g>

  <!-- Top bar -->
  <g>
    <rect x="228" width="1212" height="64" fill="white"/>
    <line x1="228" y1="64" x2="1440" y2="64" stroke="#e4e4e7"/>
    <g transform="translate(252,22)">
      <text font-size="16" font-weight="700" fill="#18181b">Chats</text>
      <text y="20" font-size="11" fill="#71717a">47 chats &#183; 8 bots running &#183; sorted by latest message</text>
    </g>
    <g transform="translate(1140,20)">
      <rect width="120" height="28" rx="8" fill="#f4f4f5"/>
      <text x="14" y="18" font-size="11" fill="#71717a">Sync from WhatsApp</text>
    </g>
    <g transform="translate(1280,20)">
      <rect width="100" height="28" rx="8" fill="url(#brand)"/>
      <text x="50" y="18" text-anchor="middle" font-size="11" font-weight="600" fill="white">+ Add chat</text>
    </g>
  </g>


  <!-- Filters bar -->
  <g transform="translate(252,96)" filter="url(#cardShadow)">
    <rect width="1140" height="60" rx="14" fill="white" stroke="#e4e4e7"/>
    <g transform="translate(20,16)">
      <rect width="320" height="28" rx="8" fill="#f4f4f5"/>
      <text x="14" y="18" font-size="12" fill="#a1a1aa">Search by name or JID…</text>
    </g>
    <g transform="translate(360,16)" font-size="11">
      <rect width="92" height="28" rx="8" fill="#f0fdf4" stroke="#bbf7d0"/>
      <text x="46" y="18" text-anchor="middle" font-weight="600" fill="#166534">Type: any</text>
    </g>
    <g transform="translate(464,16)" font-size="11">
      <rect width="120" height="28" rx="8" fill="#f0fdf4" stroke="#bbf7d0"/>
      <text x="60" y="18" text-anchor="middle" font-weight="600" fill="#166534">Activity: active</text>
    </g>
    <g transform="translate(596,16)" font-size="11">
      <rect width="148" height="28" rx="8" fill="#f0fdf4" stroke="#bbf7d0"/>
      <text x="74" y="18" text-anchor="middle" font-weight="600" fill="#166534">Bot status: running</text>
    </g>
    <g transform="translate(940,16)" font-size="11">
      <rect width="84" height="28" rx="8" fill="#f4f4f5"/>
      <text x="42" y="18" text-anchor="middle" font-weight="600" fill="#52525b">20 / page</text>
    </g>
    <g transform="translate(1036,16)" font-size="11">
      <rect width="84" height="28" rx="8" fill="url(#brand)"/>
      <text x="42" y="18" text-anchor="middle" font-weight="600" fill="white">Apply</text>
    </g>
  </g>

  <!-- Bulk action bar -->
  <g transform="translate(252,168)">
    <rect width="1140" height="44" rx="10" fill="#fffbeb" stroke="#fde68a"/>
    <text x="20" y="28" font-size="12" font-weight="600" fill="#92400e">2 chats selected</text>
    <g transform="translate(220,10)" font-size="11">
      <rect width="92" height="24" rx="6" fill="#dcfce7"/>
      <text x="46" y="16" text-anchor="middle" font-weight="600" fill="#166534">Start bots</text>
      <rect x="100" width="92" height="24" rx="6" fill="#fee2e2"/>
      <text x="146" y="16" text-anchor="middle" font-weight="600" fill="#b91c1c">Stop bots</text>
      <rect x="200" width="92" height="24" rx="6" fill="#f4f4f5"/>
      <text x="246" y="16" text-anchor="middle" font-weight="600" fill="#52525b">Delete</text>
    </g>
    <text x="1116" y="28" text-anchor="end" font-size="11" fill="#92400e">Clear selection</text>
  </g>

  <!-- Table -->
  <g transform="translate(252,224)" filter="url(#cardShadow)">
    <rect width="1140" height="616" rx="14" fill="white" stroke="#e4e4e7"/>
    <!-- Header row -->
    <g transform="translate(0,0)">
      <rect width="1140" height="40" rx="14" fill="#fafafa"/>
      <rect y="20" width="1140" height="20" fill="#fafafa"/>
      <line x1="0" y1="40" x2="1140" y2="40" stroke="#e4e4e7"/>
      <text x="48" y="26" font-size="10" font-weight="700" fill="#71717a" letter-spacing="1">CHAT</text>
      <text x="280" y="26" font-size="10" font-weight="700" fill="#71717a" letter-spacing="1">TYPE</text>
      <text x="408" y="26" font-size="10" font-weight="700" fill="#71717a" letter-spacing="1">MESSAGES</text>
      <text x="528" y="26" font-size="10" font-weight="700" fill="#71717a" letter-spacing="1">LATEST</text>
      <text x="700" y="26" font-size="10" font-weight="700" fill="#71717a" letter-spacing="1">BOTS</text>
      <text x="800" y="26" font-size="10" font-weight="700" fill="#71717a" letter-spacing="1">STATUS</text>
      <text x="940" y="26" font-size="10" font-weight="700" fill="#71717a" letter-spacing="1">ACTIONS</text>
    </g>
    <g transform="translate(0,48)">
      
        <g transform="translate(0,0)">
          <rect width="1100" height="40" rx="10" fill="white"/>
          <g transform="translate(16,12)">
            <rect width="16" height="16" rx="4" fill="#16a34a" stroke="#16a34a"/>
            <path d="M5 9 L8 12 L13 7" stroke="white" stroke-width="2" fill="none"/>
          </g>
          <text x="48" y="26" font-size="12" font-weight="600" fill="#18181b">Friends</text>
          <text x="48" y="40" font-size="10" font-family="ui-monospace, SFMono-Regular, Menlo, Consolas, monospace" fill="#a1a1aa" opacity="0.0">12345...whatsapp.net</text>

          <g transform="translate(280,10)">
            <rect width="56" height="20" rx="10" fill="#fef3c7"/>
            <text x="28" y="14" text-anchor="middle" font-size="10" font-weight="600" fill="#92400e">DM</text>
          </g>

          <text x="408" y="26" font-size="12" fill="#52525b">421</text>
          <text x="528" y="26" font-size="12" fill="#52525b">2m ago</text>

          <g transform="translate(700,10)">
            <rect x="0" y="0" width="48" height="20" rx="10" fill="#dcfce7"/><text x="24" y="14" text-anchor="middle" font-size="10" font-weight="600" fill="#166534">2 bots</text>
          </g>

          <g transform="translate(800,10)">
            <circle cx="6" cy="10" r="4" fill="#22c55e"/>
            <text x="20" y="14" font-size="11" fill="#52525b">Active</text>
          </g>

          <g transform="translate(940,8)">
            <rect width="60" height="24" rx="6" fill="#f4f4f5"/>
            <text x="30" y="16" text-anchor="middle" font-size="10" font-weight="600" fill="#52525b">Open</text>
            <rect x="68" width="80" height="24" rx="6" fill="#fee2e2"/>
            <text x="108" y="16" text-anchor="middle" font-size="10" font-weight="600" fill="#b91c1c">Stop bots</text>
          </g>
        </g>
        <g transform="translate(0,44)">
          <rect width="1100" height="40" rx="10" fill="#fafafa"/>
          <g transform="translate(16,12)">
            <rect width="16" height="16" rx="4" fill="#16a34a" stroke="#16a34a"/>
            <path d="M5 9 L8 12 L13 7" stroke="white" stroke-width="2" fill="none"/>
          </g>
          <text x="48" y="26" font-size="12" font-weight="600" fill="#18181b">Greek travel</text>
          <text x="48" y="40" font-size="10" font-family="ui-monospace, SFMono-Regular, Menlo, Consolas, monospace" fill="#a1a1aa" opacity="0.0">67890...g.us</text>

          <g transform="translate(280,10)">
            <rect width="56" height="20" rx="10" fill="#dbeafe"/>
            <text x="28" y="14" text-anchor="middle" font-size="10" font-weight="600" fill="#1e40af">Group</text>
          </g>

          <text x="408" y="26" font-size="12" fill="#52525b">1.2k</text>
          <text x="528" y="26" font-size="12" fill="#52525b">22m ago</text>

          <g transform="translate(700,10)">
            <rect x="0" y="0" width="48" height="20" rx="10" fill="#dcfce7"/><text x="24" y="14" text-anchor="middle" font-size="10" font-weight="600" fill="#166534">1 bot</text>
          </g>

          <g transform="translate(800,10)">
            <circle cx="6" cy="10" r="4" fill="#22c55e"/>
            <text x="20" y="14" font-size="11" fill="#52525b">Active</text>
          </g>

          <g transform="translate(940,8)">
            <rect width="60" height="24" rx="6" fill="#f4f4f5"/>
            <text x="30" y="16" text-anchor="middle" font-size="10" font-weight="600" fill="#52525b">Open</text>
            <rect x="68" width="80" height="24" rx="6" fill="#fee2e2"/>
            <text x="108" y="16" text-anchor="middle" font-size="10" font-weight="600" fill="#b91c1c">Stop bots</text>
          </g>
        </g>
        <g transform="translate(0,88)">
          <rect width="1100" height="40" rx="10" fill="white"/>
          <g transform="translate(16,12)">
            <rect width="16" height="16" rx="4" fill="white" stroke="#16a34a"/>
            
          </g>
          <text x="48" y="26" font-size="12" font-weight="600" fill="#18181b">Family group</text>
          <text x="48" y="40" font-size="10" font-family="ui-monospace, SFMono-Regular, Menlo, Consolas, monospace" fill="#a1a1aa" opacity="0.0">11122...g.us</text>

          <g transform="translate(280,10)">
            <rect width="56" height="20" rx="10" fill="#dbeafe"/>
            <text x="28" y="14" text-anchor="middle" font-size="10" font-weight="600" fill="#1e40af">Group</text>
          </g>

          <text x="408" y="26" font-size="12" fill="#52525b">812</text>
          <text x="528" y="26" font-size="12" fill="#52525b">12m ago</text>

          <g transform="translate(700,10)">
            <rect x="0" y="0" width="48" height="20" rx="10" fill="#dcfce7"/><text x="24" y="14" text-anchor="middle" font-size="10" font-weight="600" fill="#166534">1 bot</text>
          </g>

          <g transform="translate(800,10)">
            <circle cx="6" cy="10" r="4" fill="#22c55e"/>
            <text x="20" y="14" font-size="11" fill="#52525b">Active</text>
          </g>

          <g transform="translate(940,8)">
            <rect width="60" height="24" rx="6" fill="#f4f4f5"/>
            <text x="30" y="16" text-anchor="middle" font-size="10" font-weight="600" fill="#52525b">Open</text>
            <rect x="68" width="80" height="24" rx="6" fill="#fee2e2"/>
            <text x="108" y="16" text-anchor="middle" font-size="10" font-weight="600" fill="#b91c1c">Stop bots</text>
          </g>
        </g>
        <g transform="translate(0,132)">
          <rect width="1100" height="40" rx="10" fill="#fafafa"/>
          <g transform="translate(16,12)">
            <rect width="16" height="16" rx="4" fill="white" stroke="#16a34a"/>
            
          </g>
          <text x="48" y="26" font-size="12" font-weight="600" fill="#18181b">Work group</text>
          <text x="48" y="40" font-size="10" font-family="ui-monospace, SFMono-Regular, Menlo, Consolas, monospace" fill="#a1a1aa" opacity="0.0">33445...g.us</text>

          <g transform="translate(280,10)">
            <rect width="56" height="20" rx="10" fill="#dbeafe"/>
            <text x="28" y="14" text-anchor="middle" font-size="10" font-weight="600" fill="#1e40af">Group</text>
          </g>

          <text x="408" y="26" font-size="12" fill="#52525b">643</text>
          <text x="528" y="26" font-size="12" fill="#52525b">44m ago</text>

          <g transform="translate(700,10)">
            <rect x="0" y="0" width="48" height="20" rx="10" fill="#dcfce7"/><text x="24" y="14" text-anchor="middle" font-size="10" font-weight="600" fill="#166534">1 bot</text>
          </g>

          <g transform="translate(800,10)">
            <circle cx="6" cy="10" r="4" fill="#22c55e"/>
            <text x="20" y="14" font-size="11" fill="#52525b">Active</text>
          </g>

          <g transform="translate(940,8)">
            <rect width="60" height="24" rx="6" fill="#f4f4f5"/>
            <text x="30" y="16" text-anchor="middle" font-size="10" font-weight="600" fill="#52525b">Open</text>
            <rect x="68" width="80" height="24" rx="6" fill="#fee2e2"/>
            <text x="108" y="16" text-anchor="middle" font-size="10" font-weight="600" fill="#b91c1c">Stop bots</text>
          </g>
        </g>
        <g transform="translate(0,176)">
          <rect width="1100" height="40" rx="10" fill="white"/>
          <g transform="translate(16,12)">
            <rect width="16" height="16" rx="4" fill="white" stroke="#16a34a"/>
            
          </g>
          <text x="48" y="26" font-size="12" font-weight="600" fill="#18181b">DM Alex</text>
          <text x="48" y="40" font-size="10" font-family="ui-monospace, SFMono-Regular, Menlo, Consolas, monospace" fill="#a1a1aa" opacity="0.0">55566...whatsapp.net</text>

          <g transform="translate(280,10)">
            <rect width="56" height="20" rx="10" fill="#fef3c7"/>
            <text x="28" y="14" text-anchor="middle" font-size="10" font-weight="600" fill="#92400e">DM</text>
          </g>

          <text x="408" y="26" font-size="12" fill="#52525b">203</text>
          <text x="528" y="26" font-size="12" fill="#52525b">5m ago</text>

          <g transform="translate(700,10)">
            <rect x="0" y="0" width="48" height="20" rx="10" fill="#dcfce7"/><text x="24" y="14" text-anchor="middle" font-size="10" font-weight="600" fill="#166534">2 bots</text>
          </g>

          <g transform="translate(800,10)">
            <circle cx="6" cy="10" r="4" fill="#22c55e"/>
            <text x="20" y="14" font-size="11" fill="#52525b">Active</text>
          </g>

          <g transform="translate(940,8)">
            <rect width="60" height="24" rx="6" fill="#f4f4f5"/>
            <text x="30" y="16" text-anchor="middle" font-size="10" font-weight="600" fill="#52525b">Open</text>
            <rect x="68" width="80" height="24" rx="6" fill="#fee2e2"/>
            <text x="108" y="16" text-anchor="middle" font-size="10" font-weight="600" fill="#b91c1c">Stop bots</text>
          </g>
        </g>
        <g transform="translate(0,220)">
          <rect width="1100" height="40" rx="10" fill="#fafafa"/>
          <g transform="translate(16,12)">
            <rect width="16" height="16" rx="4" fill="white" stroke="#16a34a"/>
            
          </g>
          <text x="48" y="26" font-size="12" font-weight="600" fill="#18181b">DM Sam</text>
          <text x="48" y="40" font-size="10" font-family="ui-monospace, SFMono-Regular, Menlo, Consolas, monospace" fill="#a1a1aa" opacity="0.0">77788...whatsapp.net</text>

          <g transform="translate(280,10)">
            <rect width="56" height="20" rx="10" fill="#fef3c7"/>
            <text x="28" y="14" text-anchor="middle" font-size="10" font-weight="600" fill="#92400e">DM</text>
          </g>

          <text x="408" y="26" font-size="12" fill="#52525b">118</text>
          <text x="528" y="26" font-size="12" fill="#52525b">1h ago</text>

          <g transform="translate(700,10)">
            <rect x="0" y="0" width="48" height="20" rx="10" fill="#dcfce7"/><text x="24" y="14" text-anchor="middle" font-size="10" font-weight="600" fill="#166534">1 bot</text>
          </g>

          <g transform="translate(800,10)">
            <circle cx="6" cy="10" r="4" fill="#22c55e"/>
            <text x="20" y="14" font-size="11" fill="#52525b">Active</text>
          </g>

          <g transform="translate(940,8)">
            <rect width="60" height="24" rx="6" fill="#f4f4f5"/>
            <text x="30" y="16" text-anchor="middle" font-size="10" font-weight="600" fill="#52525b">Open</text>
            <rect x="68" width="80" height="24" rx="6" fill="#fee2e2"/>
            <text x="108" y="16" text-anchor="middle" font-size="10" font-weight="600" fill="#b91c1c">Stop bots</text>
          </g>
        </g>
        <g transform="translate(0,264)">
          <rect width="1100" height="40" rx="10" fill="white"/>
          <g transform="translate(16,12)">
            <rect width="16" height="16" rx="4" fill="white" stroke="#16a34a"/>
            
          </g>
          <text x="48" y="26" font-size="12" font-weight="600" fill="#18181b">Mom</text>
          <text x="48" y="40" font-size="10" font-family="ui-monospace, SFMono-Regular, Menlo, Consolas, monospace" fill="#a1a1aa" opacity="0.0">99900...whatsapp.net</text>

          <g transform="translate(280,10)">
            <rect width="56" height="20" rx="10" fill="#fef3c7"/>
            <text x="28" y="14" text-anchor="middle" font-size="10" font-weight="600" fill="#92400e">DM</text>
          </g>

          <text x="408" y="26" font-size="12" fill="#52525b">67</text>
          <text x="528" y="26" font-size="12" fill="#52525b">yesterday</text>

          <g transform="translate(700,10)">
            <rect x="0" y="0" width="48" height="20" rx="10" fill="#f4f4f5"/><text x="24" y="14" text-anchor="middle" font-size="10" font-weight="600" fill="#71717a">none</text>
          </g>

          <g transform="translate(800,10)">
            <circle cx="6" cy="10" r="4" fill="#a1a1aa"/>
            <text x="20" y="14" font-size="11" fill="#52525b">Quiet</text>
          </g>

          <g transform="translate(940,8)">
            <rect width="60" height="24" rx="6" fill="#f4f4f5"/>
            <text x="30" y="16" text-anchor="middle" font-size="10" font-weight="600" fill="#52525b">Open</text>
            <rect x="68" width="80" height="24" rx="6" fill="#fee2e2"/>
            <text x="108" y="16" text-anchor="middle" font-size="10" font-weight="600" fill="#b91c1c">Stop bots</text>
          </g>
        </g>
        <g transform="translate(0,308)">
          <rect width="1100" height="40" rx="10" fill="#fafafa"/>
          <g transform="translate(16,12)">
            <rect width="16" height="16" rx="4" fill="white" stroke="#16a34a"/>
            
          </g>
          <text x="48" y="26" font-size="12" font-weight="600" fill="#18181b">Project Phoenix</text>
          <text x="48" y="40" font-size="10" font-family="ui-monospace, SFMono-Regular, Menlo, Consolas, monospace" fill="#a1a1aa" opacity="0.0">10203...g.us</text>

          <g transform="translate(280,10)">
            <rect width="56" height="20" rx="10" fill="#dbeafe"/>
            <text x="28" y="14" text-anchor="middle" font-size="10" font-weight="600" fill="#1e40af">Group</text>
          </g>

          <text x="408" y="26" font-size="12" fill="#52525b">412</text>
          <text x="528" y="26" font-size="12" fill="#52525b">3h ago</text>

          <g transform="translate(700,10)">
            <rect x="0" y="0" width="48" height="20" rx="10" fill="#f4f4f5"/><text x="24" y="14" text-anchor="middle" font-size="10" font-weight="600" fill="#71717a">none</text>
          </g>

          <g transform="translate(800,10)">
            <circle cx="6" cy="10" r="4" fill="#a1a1aa"/>
            <text x="20" y="14" font-size="11" fill="#52525b">Quiet</text>
          </g>

          <g transform="translate(940,8)">
            <rect width="60" height="24" rx="6" fill="#f4f4f5"/>
            <text x="30" y="16" text-anchor="middle" font-size="10" font-weight="600" fill="#52525b">Open</text>
            <rect x="68" width="80" height="24" rx="6" fill="#fee2e2"/>
            <text x="108" y="16" text-anchor="middle" font-size="10" font-weight="600" fill="#b91c1c">Stop bots</text>
          </g>
        </g>
        <g transform="translate(0,352)">
          <rect width="1100" height="40" rx="10" fill="white"/>
          <g transform="translate(16,12)">
            <rect width="16" height="16" rx="4" fill="white" stroke="#16a34a"/>
            
          </g>
          <text x="48" y="26" font-size="12" font-weight="600" fill="#18181b">Yoga class</text>
          <text x="48" y="40" font-size="10" font-family="ui-monospace, SFMono-Regular, Menlo, Consolas, monospace" fill="#a1a1aa" opacity="0.0">20304...g.us</text>

          <g transform="translate(280,10)">
            <rect width="56" height="20" rx="10" fill="#dbeafe"/>
            <text x="28" y="14" text-anchor="middle" font-size="10" font-weight="600" fill="#1e40af">Group</text>
          </g>

          <text x="408" y="26" font-size="12" fill="#52525b">89</text>
          <text x="528" y="26" font-size="12" fill="#52525b">yesterday</text>

          <g transform="translate(700,10)">
            <rect x="0" y="0" width="48" height="20" rx="10" fill="#f4f4f5"/><text x="24" y="14" text-anchor="middle" font-size="10" font-weight="600" fill="#71717a">none</text>
          </g>

          <g transform="translate(800,10)">
            <circle cx="6" cy="10" r="4" fill="#a1a1aa"/>
            <text x="20" y="14" font-size="11" fill="#52525b">Quiet</text>
          </g>

          <g transform="translate(940,8)">
            <rect width="60" height="24" rx="6" fill="#f4f4f5"/>
            <text x="30" y="16" text-anchor="middle" font-size="10" font-weight="600" fill="#52525b">Open</text>
            <rect x="68" width="80" height="24" rx="6" fill="#fee2e2"/>
            <text x="108" y="16" text-anchor="middle" font-size="10" font-weight="600" fill="#b91c1c">Stop bots</text>
          </g>
        </g>
        <g transform="translate(0,396)">
          <rect width="1100" height="40" rx="10" fill="#fafafa"/>
          <g transform="translate(16,12)">
            <rect width="16" height="16" rx="4" fill="white" stroke="#16a34a"/>
            
          </g>
          <text x="48" y="26" font-size="12" font-weight="600" fill="#18181b">Old colleagues</text>
          <text x="48" y="40" font-size="10" font-family="ui-monospace, SFMono-Regular, Menlo, Consolas, monospace" fill="#a1a1aa" opacity="0.0">30405...g.us</text>

          <g transform="translate(280,10)">
            <rect width="56" height="20" rx="10" fill="#dbeafe"/>
            <text x="28" y="14" text-anchor="middle" font-size="10" font-weight="600" fill="#1e40af">Group</text>
          </g>

          <text x="408" y="26" font-size="12" fill="#52525b">23</text>
          <text x="528" y="26" font-size="12" fill="#52525b">5d ago</text>

          <g transform="translate(700,10)">
            <rect x="0" y="0" width="48" height="20" rx="10" fill="#f4f4f5"/><text x="24" y="14" text-anchor="middle" font-size="10" font-weight="600" fill="#71717a">none</text>
          </g>

          <g transform="translate(800,10)">
            <circle cx="6" cy="10" r="4" fill="#a1a1aa"/>
            <text x="20" y="14" font-size="11" fill="#52525b">Quiet</text>
          </g>

          <g transform="translate(940,8)">
            <rect width="60" height="24" rx="6" fill="#f4f4f5"/>
            <text x="30" y="16" text-anchor="middle" font-size="10" font-weight="600" fill="#52525b">Open</text>
            <rect x="68" width="80" height="24" rx="6" fill="#fee2e2"/>
            <text x="108" y="16" text-anchor="middle" font-size="10" font-weight="600" fill="#b91c1c">Stop bots</text>
          </g>
        </g>
    </g>

    <!-- Pagination footer -->
    <g transform="translate(0,572)">
      <line y1="0" x2="1140" y2="0" stroke="#f4f4f5"/>
      <text x="20" y="28" font-size="11" fill="#71717a">Showing 1–10 of 47</text>
      <g transform="translate(900,8)" font-size="11">
        <rect width="36" height="24" rx="6" fill="#f4f4f5"/>
        <text x="18" y="16" text-anchor="middle" fill="#52525b">↔</text>
        <rect x="44" width="28" height="24" rx="6" fill="#16a34a"/>
        <text x="58" y="16" text-anchor="middle" fill="white" font-weight="700">1</text>
        <rect x="80" width="28" height="24" rx="6" fill="#f4f4f5"/>
        <text x="94" y="16" text-anchor="middle" fill="#52525b">2</text>
        <rect x="116" width="28" height="24" rx="6" fill="#f4f4f5"/>
        <text x="130" y="16" text-anchor="middle" fill="#52525b">3</text>
        <rect x="152" width="36" height="24" rx="6" fill="#f4f4f5"/>
        <text x="170" y="16" text-anchor="middle" fill="#52525b">→</text>
      </g>
    </g>
  </g>
</svg>
